<svg width="60" height="60" viewBox="0 0 60 60" fill="none" xmlns="http://www.w3.org/2000/svg">
  <!-- Shopping bag outline -->
  <path d="M12 20L8 52C8 54.2091 9.79086 56 12 56H48C50.2091 56 52 54.2091 52 52L48 20H12Z" stroke="#2D3748" stroke-width="3" fill="white"/>
  
  <!-- Shopping bag handle -->
  <path d="M16 20V16C16 11.5817 19.5817 8 24 8H36C40.4183 8 44 11.5817 44 16V20" stroke="#2D3748" stroke-width="3" fill="none"/>
  
  <!-- GraphQL logo in center -->
  <g transform="translate(20, 25) scale(0.8)">
    <!-- GraphQL hexagon with nodes -->
    <circle cx="10" cy="5" r="2.5" fill="#E53E3E"/>
    <circle cx="18" cy="9" r="2.5" fill="#E53E3E"/>
    <circle cx="18" cy="17" r="2.5" fill="#E53E3E"/>
    <circle cx="10" cy="21" r="2.5" fill="#E53E3E"/>
    <circle cx="2" cy="17" r="2.5" fill="#E53E3E"/>
    <circle cx="2" cy="9" r="2.5" fill="#E53E3E"/>
    
    <!-- Connecting lines -->
    <line x1="10" y1="5" x2="18" y2="9" stroke="#E53E3E" stroke-width="2"/>
    <line x1="18" y1="9" x2="18" y2="17" stroke="#E53E3E" stroke-width="2"/>
    <line x1="18" y1="17" x2="10" y2="21" stroke="#E53E3E" stroke-width="2"/>
    <line x1="10" y1="21" x2="2" y2="17" stroke="#E53E3E" stroke-width="2"/>
    <line x1="2" y1="17" x2="2" y2="9" stroke="#E53E3E" stroke-width="2"/>
    <line x1="2" y1="9" x2="10" y2="5" stroke="#E53E3E" stroke-width="2"/>
    
    <!-- Inner triangle -->
    <path d="M6 10L14 10L10 16Z" fill="#E53E3E" opacity="0.7"/>
  </g>
  
  <!-- Dynamic indicator (small sparkle) -->
  <g transform="translate(42, 12)">
    <path d="M4 0L5 3L8 4L5 5L4 8L3 5L0 4L3 3Z" fill="#38A169"/>
  </g>
</svg>
